<svg width="75" height="75" viewBox="0 0 75 75" fill="none" xmlns="http://www.w3.org/2000/svg">
<path d="M16.725 19.35L18.75 27.975L16.725 36.5625L24.2625 41.2125L28.875 48.75L37.5 46.725L46.125 48.75L50.7375 41.2125L58.275 36.5625L56.25 27.975L58.275 19.35L50.775 14.7L46.125 7.16248L37.5 9.22498L28.9125 7.19998L24.225 14.7L16.725 19.35ZM37.5375 43.125C33.5593 43.125 29.7439 41.5446 26.9309 38.7316C24.1179 35.9185 22.5375 32.1032 22.5375 28.125C22.5375 24.1467 24.1179 20.3314 26.9309 17.5184C29.7439 14.7053 33.5593 13.125 37.5375 13.125C45.7875 13.125 52.5 19.8375 52.5 28.0875C52.5 36.4125 45.7875 43.125 37.5375 43.125ZM37.4625 39.375C31.2375 39.375 26.25 34.35 26.25 28.125C26.25 21.9375 31.2375 16.875 37.4625 16.875C43.6875 16.875 48.75 21.9375 48.75 28.125C48.75 34.35 43.6875 39.375 37.4625 39.375ZM51.8625 43.5L47.0625 51.9L39.2625 50.1375L48.75 72L54 63.75H63.375L51.8625 43.5ZM22.9875 43.7625L27.675 52.2L35.6625 50.2875L26.25 72L21 63.75H11.625L22.9875 43.7625Z" fill="black"/>
</svg>
