<svg width="71" height="71" viewBox="0 0 71 71" fill="none" xmlns="http://www.w3.org/2000/svg">
<g clip-path="url(#clip0)">
<path d="M35.4629 0.814819C16.2864 0.814819 0.740723 16.3605 0.740723 35.537C0.740723 54.7136 16.2864 70.2593 35.4629 70.2593C54.6395 70.2593 70.1852 54.7136 70.1852 35.537C70.1852 16.3605 54.6395 0.814819 35.4629 0.814819ZM34.2846 13.6491H36.6413V20.5961H34.2846V13.6491ZM24.6462 15.7345L28.6304 21.4226L26.6977 22.779L22.7134 17.0909L24.6462 15.7345ZM46.2797 15.7345L48.2125 17.0909L44.2282 22.779L42.2955 21.4226L46.2797 15.7345ZM35.4629 22.495C41.2357 22.495 45.9152 25.999 45.9152 30.3236L39.977 48.3078H30.9489L25.0107 30.3236C25.0107 25.999 29.6905 22.495 35.4629 22.495ZM16.6904 24.5804L23.2177 26.9582L22.4082 29.175L15.8851 26.7972L16.6904 24.5804ZM54.2355 24.5804L55.0408 26.7972L48.5135 29.175L47.7081 26.9582L54.2355 24.5804ZM22.9041 34.7233L23.5144 37.0036L16.8048 38.8008L16.1945 36.5204L22.9041 34.7233ZM48.0218 34.7233L54.7314 36.5204L54.121 38.8008L47.4114 37.0036L48.0218 34.7233ZM30.8175 49.6218H40.1084V52.7455H30.8175V49.6218ZM30.8175 54.3011H40.1084V57.4249H30.8175V54.3011Z" fill="black"/>
</g>
<defs>
<clipPath id="clip0">
<rect width="69.4444" height="69.4444" fill="white" transform="translate(0.740723 0.814819)"/>
</clipPath>
</defs>
</svg>
