<svg width="87" height="87" viewBox="0 0 87 87" fill="none" xmlns="http://www.w3.org/2000/svg">
<path d="M46.7857 38.2143C44.6428 37.6786 42.4999 36.6072 40.8928 35C39.2857 34.4643 38.75 32.8572 38.75 31.7857C38.75 30.7143 39.2857 29.1072 40.3571 28.5714C41.9642 27.5 43.5714 26.4286 45.1785 26.9643C48.3928 26.9643 51.0714 28.5714 52.6785 30.7143L57.5 24.2857C55.8928 22.6786 54.2857 21.6072 52.6785 20.5357C51.0714 19.4643 48.9285 18.9286 46.7857 18.9286V11.4286H40.3571V18.9286C37.6785 19.4643 34.9999 21.0714 32.8571 23.2143C30.7142 25.8929 29.1071 29.1072 29.6428 32.3214C29.6428 35.5357 30.7142 38.75 32.8571 40.8929C35.5357 43.5714 39.2857 45.1786 42.5 46.7857C44.1071 47.3214 46.25 48.3929 47.8571 49.4643C48.9285 50.5357 49.4642 52.1429 49.4642 53.75C49.4642 55.3572 48.9285 56.9643 47.8571 58.5714C46.25 60.1786 44.1071 60.7143 42.5 60.7143C40.3571 60.7143 37.6785 60.1786 36.0714 58.5714C34.4642 57.5 32.8571 55.8929 31.7857 54.2857L26.4285 60.1786C28.0357 62.3214 29.6428 63.9286 31.7857 65.5357C34.4642 67.1429 37.6785 68.75 40.8928 68.75V75.7143H46.7857V67.6786C50 67.1429 52.6785 65.5357 54.8214 63.3929C57.5 60.7143 59.1071 56.4286 59.1071 52.6786C59.1071 49.4643 58.0357 45.7143 55.3571 43.5714C52.6785 40.8929 50 39.2857 46.7857 38.2143ZM43.5714 0.714294C19.9999 0.714294 0.714233 20 0.714233 43.5714C0.714233 67.1429 19.9999 86.4286 43.5714 86.4286C67.1428 86.4286 86.4285 67.1429 86.4285 43.5714C86.4285 20 67.1428 0.714294 43.5714 0.714294ZM43.5714 80.5357C23.2142 80.5357 6.60709 63.9286 6.60709 43.5714C6.60709 23.2143 23.2142 6.60715 43.5714 6.60715C63.9285 6.60715 80.5357 23.2143 80.5357 43.5714C80.5357 63.9286 63.9285 80.5357 43.5714 80.5357Z" fill="black"/>
</svg>
